#Comment line ignore any data following # character 
#Hierarchical Translation and Rotation (.htr) file 
[Header]	
#Header keywords are followed by a single value 
FileType HTR		#Single word string
DataType HTRS		#Translation followed by rotation and scale data
FileVersion 1		#integer
NumSegments 84		#integer
NumFrames 2		#integer
DataFrameRate 30		#integer, data frame rate in this file
EulerRotationOrder ZYX
CalibrationUnits mm
RotationUnits Degrees
GlobalAxisofGravity Y
BoneLengthAxis Y
ScaleFactor 1.00
[SegmentNames&Hierarchy]
#CHILD	PARENT
MASTER GLOBAL
root MASTER
chest root
L_mid_tent01 root
R_mid_tent01 root
spine01 root
Bip01_Neck chest
L_humerus chest
R_humerus chest
weapon_bone chest
Bip01_Head Bip01_Neck
eye_left_bone Bip01_Head
eye_right_bone Bip01_Head
L_forearm L_humerus
L_front_hand L_forearm
L_weapon_bone L_forearm
L_front_hand01_01 L_front_hand
L_front_hand02_01 L_front_hand
L_front_hand03_01 L_front_hand
L_front_hand01_02 L_front_hand01_01
L_front_hand02_02 L_front_hand02_01
L_front_hand03_02 L_front_hand03_01
R_forearm R_humerus
R_front_hand R_forearm
R_weapon_bone R_forearm
R_front_hand01_01 R_front_hand
R_front_hand02_01 R_front_hand
R_front_hand03_01 R_front_hand
R_front_hand01_02 R_front_hand01_01
R_front_hand02_02 R_front_hand02_01
R_front_hand03_02 R_front_hand03_01
null_rope01_connect L_mid_tent01
Rope1_Seg01 null_rope01_connect
Rope1_Seg02 Rope1_Seg01
Rope1_Seg03 Rope1_Seg02
Rope1_Seg04 Rope1_Seg03
Rope1_Seg05 Rope1_Seg04
Rope1_Seg06 Rope1_Seg05
Rope1_Seg07 Rope1_Seg06
Rope1_Seg09 Rope1_Seg07
L_mid_hand01 Rope1_Seg09
L_mid_hand02 Rope1_Seg09
L_mid_hand03 Rope1_Seg09
null_rope02_connect R_mid_tent01
Rope2_Seg01 null_rope02_connect
Rope2_Seg02 Rope2_Seg01
Rope2_Seg03 Rope2_Seg02
Rope2_Seg04 Rope2_Seg03
Rope2_Seg05 Rope2_Seg04
Rope2_Seg06 Rope2_Seg05
Rope2_Seg07 Rope2_Seg06
Rope2_Seg09 Rope2_Seg07
R_mid_hand01 Rope2_Seg09
R_mid_hand02 Rope2_Seg09
R_mid_hand03 Rope2_Seg09
spine02 spine01
spine03 spine02
pelvis spine03
null_rope03_connect pelvis
null_rope04_connect pelvis
Rope3_Seg01 null_rope03_connect
Rope3_Seg02 Rope3_Seg01
Rope3_Seg03 Rope3_Seg02
Rope3_Seg04 Rope3_Seg03
Rope3_Seg05 Rope3_Seg04
Rope3_Seg06 Rope3_Seg05
Rope3_Seg07 Rope3_Seg06
Rope3_Seg08 Rope3_Seg07
Rope3_Seg09 Rope3_Seg08
R_rear_hand01 Rope3_Seg09
R_rear_hand02 Rope3_Seg09
R_rear_hand03 Rope3_Seg09
Rope4_Seg01 null_rope04_connect
Rope4_Seg02 Rope4_Seg01
Rope4_Seg03 Rope4_Seg02
Rope4_Seg04 Rope4_Seg03
Rope4_Seg05 Rope4_Seg04
Rope4_Seg06 Rope4_Seg05
Rope4_Seg07 Rope4_Seg06
Rope4_Seg08 Rope4_Seg07
Rope4_Seg09 Rope4_Seg08
L_rear_hand01 Rope4_Seg09
L_rear_hand02 Rope4_Seg09
L_rear_hand03 Rope4_Seg09
[BasePosition]
#SegmentName Tx, Ty, Tz, Rx, Ry, Rz, BoneLength
MASTER 0.000000 0.000000 0.000000 -90.000000 0.000000 0.000000 10.000000 
root 0.000000 0.000000 0.000000 0.000000 0.000000 0.000000 10.000000 
chest 0.000000 0.000000 0.000000 0.000000 0.000000 0.000000 10.000000 
L_mid_tent01 0.000000 0.000000 0.000000 0.000000 0.000000 0.000000 10.000000 
R_mid_tent01 0.000000 0.000000 0.000000 0.000000 0.000000 0.000000 10.000000 
spine01 0.000000 0.000000 0.000000 0.000000 0.000000 0.000000 10.000000 
Bip01_Neck 0.000000 0.000000 0.000000 0.000000 0.000000 0.000000 10.000000 
L_humerus 0.000000 0.000000 0.000000 0.000000 0.000000 0.000000 10.000000 
R_humerus 0.000000 0.000000 0.000000 0.000000 0.000000 0.000000 10.000000 
weapon_bone 0.000000 0.000000 0.000000 0.000000 0.000000 0.000000 10.000000 
Bip01_Head 0.000000 0.000000 0.000000 0.000000 0.000000 0.000000 10.000000 
eye_left_bone 0.000000 0.000000 0.000000 0.000000 0.000000 0.000000 10.000000 
eye_right_bone 0.000000 0.000000 0.000000 0.000000 0.000000 0.000000 10.000000 
L_forearm 0.000000 0.000000 0.000000 0.000000 0.000000 0.000000 10.000000 
L_front_hand 0.000000 0.000000 0.000000 0.000000 0.000000 0.000000 10.000000 
L_weapon_bone 0.000000 0.000000 0.000000 0.000000 0.000000 0.000000 10.000000 
L_front_hand01_01 0.000000 0.000000 0.000000 0.000000 0.000000 0.000000 10.000000 
L_front_hand02_01 0.000000 0.000000 0.000000 0.000000 0.000000 0.000000 10.000000 
L_front_hand03_01 0.000000 0.000000 0.000000 0.000000 0.000000 0.000000 10.000000 
L_front_hand01_02 0.000000 0.000000 0.000000 0.000000 0.000000 0.000000 10.000000 
L_front_hand02_02 0.000000 0.000000 0.000000 0.000000 0.000000 0.000000 10.000000 
L_front_hand03_02 0.000000 0.000000 0.000000 0.000000 0.000000 0.000000 10.000000 
R_forearm 0.000000 0.000000 0.000000 0.000000 0.000000 0.000000 10.000000 
R_front_hand 0.000000 0.000000 0.000000 0.000000 0.000000 0.000000 10.000000 
R_weapon_bone 0.000000 0.000000 0.000000 0.000000 0.000000 0.000000 10.000000 
R_front_hand01_01 0.000000 0.000000 0.000000 0.000000 0.000000 0.000000 10.000000 
R_front_hand02_01 0.000000 0.000000 0.000000 0.000000 0.000000 0.000000 10.000000 
R_front_hand03_01 0.000000 0.000000 0.000000 0.000000 0.000000 0.000000 10.000000 
R_front_hand01_02 0.000000 0.000000 0.000000 0.000000 0.000000 0.000000 10.000000 
R_front_hand02_02 0.000000 0.000000 0.000000 0.000000 0.000000 0.000000 10.000000 
R_front_hand03_02 0.000000 0.000000 0.000000 0.000000 0.000000 0.000000 10.000000 
null_rope01_connect 0.000000 0.000000 0.000000 0.000000 0.000000 0.000000 10.000000 
Rope1_Seg01 0.000000 0.000000 0.000000 0.000000 0.000000 0.000000 10.000000 
Rope1_Seg02 0.000000 0.000000 0.000000 0.000000 0.000000 0.000000 10.000000 
Rope1_Seg03 0.000000 0.000000 0.000000 0.000000 0.000000 0.000000 10.000000 
Rope1_Seg04 0.000000 0.000000 0.000000 0.000000 0.000000 0.000000 10.000000 
Rope1_Seg05 0.000000 0.000000 0.000000 0.000000 0.000000 0.000000 10.000000 
Rope1_Seg06 0.000000 0.000000 0.000000 0.000000 0.000000 0.000000 10.000000 
Rope1_Seg07 0.000000 0.000000 0.000000 0.000000 0.000000 0.000000 10.000000 
Rope1_Seg09 0.000000 0.000000 0.000000 0.000000 0.000000 0.000000 10.000000 
L_mid_hand01 0.000000 0.000000 0.000000 0.000000 0.000000 0.000000 10.000000 
L_mid_hand02 0.000000 0.000000 0.000000 0.000000 0.000000 0.000000 10.000000 
L_mid_hand03 0.000000 0.000000 0.000000 0.000000 0.000000 0.000000 10.000000 
null_rope02_connect 0.000000 0.000000 0.000000 0.000000 0.000000 0.000000 10.000000 
Rope2_Seg01 0.000000 0.000000 0.000000 0.000000 0.000000 0.000000 10.000000 
Rope2_Seg02 0.000000 0.000000 0.000000 0.000000 0.000000 0.000000 10.000000 
Rope2_Seg03 0.000000 0.000000 0.000000 0.000000 0.000000 0.000000 10.000000 
Rope2_Seg04 0.000000 0.000000 0.000000 0.000000 0.000000 0.000000 10.000000 
Rope2_Seg05 0.000000 0.000000 0.000000 0.000000 0.000000 0.000000 10.000000 
Rope2_Seg06 0.000000 0.000000 0.000000 0.000000 0.000000 0.000000 10.000000 
Rope2_Seg07 0.000000 0.000000 0.000000 0.000000 0.000000 0.000000 10.000000 
Rope2_Seg09 0.000000 0.000000 0.000000 0.000000 0.000000 0.000000 10.000000 
R_mid_hand01 0.000000 0.000000 0.000000 0.000000 0.000000 0.000000 10.000000 
R_mid_hand02 0.000000 0.000000 0.000000 0.000000 0.000000 0.000000 10.000000 
R_mid_hand03 0.000000 0.000000 0.000000 0.000000 0.000000 0.000000 10.000000 
spine02 0.000000 0.000000 0.000000 0.000000 0.000000 0.000000 10.000000 
spine03 0.000000 0.000000 0.000000 0.000000 0.000000 0.000000 10.000000 
pelvis 0.000000 0.000000 0.000000 0.000000 0.000000 0.000000 10.000000 
null_rope03_connect 0.000000 0.000000 0.000000 0.000000 0.000000 0.000000 10.000000 
null_rope04_connect 0.000000 0.000000 0.000000 0.000000 0.000000 0.000000 10.000000 
Rope3_Seg01 0.000000 0.000000 0.000000 0.000000 0.000000 0.000000 10.000000 
Rope3_Seg02 0.000000 0.000000 0.000000 0.000000 0.000000 0.000000 10.000000 
Rope3_Seg03 0.000000 0.000000 0.000000 0.000000 0.000000 0.000000 10.000000 
Rope3_Seg04 0.000000 0.000000 0.000000 0.000000 0.000000 0.000000 10.000000 
Rope3_Seg05 0.000000 0.000000 0.000000 0.000000 0.000000 0.000000 10.000000 
Rope3_Seg06 0.000000 0.000000 0.000000 0.000000 0.000000 0.000000 10.000000 
Rope3_Seg07 0.000000 0.000000 0.000000 0.000000 0.000000 0.000000 10.000000 
Rope3_Seg08 0.000000 0.000000 0.000000 0.000000 0.000000 0.000000 10.000000 
Rope3_Seg09 0.000000 0.000000 0.000000 0.000000 0.000000 0.000000 10.000000 
R_rear_hand01 0.000000 0.000000 0.000000 0.000000 0.000000 0.000000 10.000000 
R_rear_hand02 0.000000 0.000000 0.000000 0.000000 0.000000 0.000000 10.000000 
R_rear_hand03 0.000000 0.000000 0.000000 0.000000 0.000000 0.000000 10.000000 
Rope4_Seg01 0.000000 0.000000 0.000000 0.000000 0.000000 0.000000 10.000000 
Rope4_Seg02 0.000000 0.000000 0.000000 0.000000 0.000000 0.000000 10.000000 
Rope4_Seg03 0.000000 0.000000 0.000000 0.000000 0.000000 0.000000 10.000000 
Rope4_Seg04 0.000000 0.000000 0.000000 0.000000 0.000000 0.000000 10.000000 
Rope4_Seg05 0.000000 0.000000 0.000000 0.000000 0.000000 0.000000 10.000000 
Rope4_Seg06 0.000000 0.000000 0.000000 0.000000 0.000000 0.000000 10.000000 
Rope4_Seg07 0.000000 0.000000 0.000000 0.000000 0.000000 0.000000 10.000000 
Rope4_Seg08 0.000000 0.000000 0.000000 0.000000 0.000000 0.000000 10.000000 
Rope4_Seg09 0.000000 0.000000 0.000000 0.000000 0.000000 0.000000 10.000000 
L_rear_hand01 0.000000 0.000000 0.000000 0.000000 0.000000 0.000000 10.000000 
L_rear_hand02 0.000000 0.000000 0.000000 0.000000 0.000000 0.000000 10.000000 
L_rear_hand03 0.000000 0.000000 0.000000 0.000000 0.000000 0.000000 10.000000 
#Beginning of Data. Separated by tabs
#Fr	Tx	Ty	Tz	Rx	Ry	Rz	SF
[MASTER]
2 -186.747910 -154.075592 0.000000 0.000002 0.002347 -89.902115 242.103424
3 -366.779907 -310.757172 0.000000 0.000008 0.002347 -89.608978 480.726013
[root]
2 -62.822132 89.476906 1158.656128 -88.197212 -5.013830 179.640991 1163.802734
3 -62.822140 86.020203 1154.048340 -90.676514 -5.510178 179.045197 1158.953735
[chest]
2 -84.512650 -34.090519 0.000000 1.672965 -0.743436 156.385269 91.129311
3 -84.512650 -34.090519 0.000000 3.896863 -0.743866 156.384811 91.129311
[L_mid_tent01]
2 23.228750 24.509907 -223.761200 -11.666813 14.392872 -5.812172 226.294907
3 23.228750 24.509907 -223.761200 -10.186612 13.405928 -4.703610 226.294907
[R_mid_tent01]
2 23.228794 24.509907 226.238495 -159.720947 -8.674687 -23.003958 228.744751
3 23.228794 24.509907 226.238495 -159.324417 -13.985921 -25.026209 228.744751
[spine01]
2 -0.361383 -0.195265 0.000000 0.001815 0.001488 11.320961 0.410763
3 -0.361383 -0.195265 0.000000 0.001815 0.001488 11.320962 0.410763
[Bip01_Neck]
2 165.484543 71.581718 0.000119 175.896118 1.177290 24.871181 180.302734
3 165.484543 71.581718 0.000119 175.896118 1.177290 24.871183 180.302734
[L_humerus]
2 -13.983130 -135.272980 -120.471481 62.255981 80.081650 163.182693 181.680161
3 -13.983130 -135.272980 -120.471481 128.077591 74.321869 -133.429977 181.680161
[R_humerus]
2 -13.983309 -135.273102 125.287651 -141.269760 -84.266396 -120.255890 184.909012
3 -13.983309 -135.273102 125.287651 -158.236542 -69.555214 -104.670288 184.909012
[weapon_bone]
2 235.964890 -300.705902 0.000000 0.000000 -89.951546 -128.212341 382.234833
3 235.964890 -300.705902 0.000000 0.000000 -89.951546 -128.212341 382.234833
[Bip01_Head]
2 201.313797 211.516815 15.929732 4.727340 10.688941 -65.645454 292.438660
3 201.313797 211.516815 15.929742 7.293676 9.974262 -67.075829 292.438660
[eye_left_bone]
2 -24.626970 125.451866 -64.772606 0.000000 -90.000000 -99.840431 143.318359
3 -24.626970 125.451866 -64.772606 0.000000 -90.000000 -99.840431 143.318359
[eye_right_bone]
2 -24.626970 125.451866 64.327362 0.000000 -89.965736 80.156380 143.117676
3 -24.626970 125.451866 64.327362 0.000000 -89.972023 80.156380 143.117676
[L_forearm]
2 322.776093 0.000000 -0.000119 0.000357 -0.002320 -107.506004 322.776093
3 322.776093 0.000000 -0.000119 0.000357 -0.002320 -107.506004 322.776093
[L_front_hand]
2 241.149185 -0.042021 -3.300071 -179.431961 -2.195943 -5.942918 241.171753
3 241.149185 -0.042021 -3.300071 -179.431961 -2.195943 -5.942918 241.171753
[L_weapon_bone]
2 156.183838 0.000000 0.000000 0.000014 0.000007 0.000001 156.183838
3 156.183838 0.000000 0.000000 0.000014 0.000007 0.000001 156.183838
[L_front_hand01_01]
2 86.095154 20.947098 -0.655860 0.139491 -0.584553 24.181789 88.609184
3 86.095154 20.947098 -0.655860 0.139491 -0.584553 24.181787 88.609184
[L_front_hand02_01]
2 86.935165 -11.437475 24.513514 119.190460 -21.905661 -12.119138 91.046425
3 86.935165 -11.437475 24.513514 119.190460 -21.905655 -12.119137 91.046425
[L_front_hand03_01]
2 86.637497 -14.123976 -20.424902 -120.437630 20.554031 -14.327168 90.126129
3 86.637497 -14.123976 -20.424902 -120.437630 20.554031 -14.327168 90.126129
[L_front_hand01_02]
2 71.020905 -0.000179 0.000030 0.000334 -0.002323 -106.379684 71.020905
3 71.020905 -0.000179 0.000030 0.000334 -0.002323 -106.379684 71.020905
[L_front_hand02_02]
2 71.020927 -0.000119 0.000060 0.000334 -0.002323 -106.379684 71.020927
3 71.020927 -0.000119 0.000060 0.000334 -0.002323 -106.379684 71.020927
[L_front_hand03_02]
2 71.020905 -0.000060 0.000060 0.000334 -0.002323 -106.379684 71.020905
3 71.020905 -0.000060 0.000060 0.000334 -0.002323 -106.379684 71.020905
[R_forearm]
2 322.776428 -0.000060 0.000030 0.196737 0.083011 -114.368637 322.776428
3 322.776428 -0.000060 0.000030 0.196737 0.083011 -114.368637 322.776428
[R_front_hand]
2 238.847015 -0.006795 2.210259 -0.341870 1.692705 -0.151780 238.857239
3 238.847015 -0.006795 2.210259 -0.341870 1.692706 -0.151780 238.857239
[R_weapon_bone]
2 155.664093 0.002503 -0.000030 0.003487 0.001180 -90.988930 155.664078
3 155.664093 0.002503 -0.000030 0.003487 0.001180 -90.988930 155.664078
[R_front_hand01_01]
2 87.624611 14.231146 22.918642 -119.218056 -22.033409 12.303373 91.683487
3 87.624611 14.231146 22.918642 -119.218056 -22.033409 12.303375 91.683487
[R_front_hand02_01]
2 89.356956 14.367283 -19.491137 120.545517 20.947186 14.823009 92.579636
3 89.356956 14.367283 -19.491137 120.545532 20.947184 14.823009 92.579636
[R_front_hand03_01]
2 87.286232 -22.307278 -0.143439 -0.231628 -0.392922 -24.567768 90.091743
3 87.286232 -22.307278 -0.143439 -0.231628 -0.392922 -24.567768 90.091743
[R_front_hand01_02]
2 71.020905 0.000060 0.000119 0.002323 -0.000334 106.381714 71.020905
3 71.020905 0.000060 0.000119 0.002323 -0.000334 106.381714 71.020905
[R_front_hand02_02]
2 71.020844 -0.000030 -0.000119 0.002323 -0.000334 106.381714 71.020836
3 71.020844 -0.000030 -0.000119 0.002323 -0.000334 106.381714 71.020836
[R_front_hand03_02]
2 71.020905 0.000000 0.000030 0.002323 -0.000334 106.381714 71.020905
3 71.020905 0.000000 0.000030 0.002323 -0.000334 106.381714 71.020905
[null_rope01_connect]
2 328.732483 0.000000 -0.000238 113.825981 72.258133 32.914970 328.732483
3 328.732483 0.000000 -0.000238 118.520012 72.351646 37.575169 328.732483
[Rope1_Seg01]
2 -0.000001 0.000037 0.000005 80.226509 -9.681246 37.773651 0.000037
3 -0.000003 0.000036 0.000010 74.945190 -5.596957 43.978798 0.000037
[Rope1_Seg02]
2 139.999863 -0.000179 0.000000 -5.010640 4.132010 1.594264 139.999863
3 139.999863 -0.000179 0.000000 -2.445421 1.318881 0.987687 139.999863
[Rope1_Seg03]
2 139.999924 0.000060 -0.000060 -7.542858 5.568575 2.741055 139.999924
3 139.999924 0.000060 -0.000060 -3.233492 1.678307 1.374449 139.999924
[Rope1_Seg04]
2 139.999924 -0.000060 -0.000119 -8.890384 5.927007 3.664169 139.999924
3 139.999924 -0.000060 -0.000119 -3.452679 1.664156 1.634033 139.999924
[Rope1_Seg05]
2 139.999832 0.000119 -0.000060 -15.734002 9.679733 8.417683 139.999832
3 139.999832 0.000119 -0.000060 5.945093 -3.486406 -2.186160 139.999832
[Rope1_Seg06]
2 139.999954 0.000119 -0.000060 -19.565838 11.528186 24.115524 139.999954
3 139.999954 0.000119 -0.000060 -29.123812 18.740583 14.264344 139.999954
[Rope1_Seg07]
2 139.999985 0.000060 0.000000 -4.247066 0.537848 9.748299 139.999985
3 139.999985 0.000060 0.000000 -17.772934 9.532182 22.331175 139.999985
[Rope1_Seg09]
2 121.602913 0.000119 -0.000089 -89.793175 -1.359789 0.847147 121.602913
3 121.602913 0.000119 -0.000089 -89.793175 -1.359789 0.847147 121.602913
[L_mid_hand01]
2 103.859421 1.038730 8.195221 106.855484 -31.239275 -9.461397 104.187431
3 103.859421 1.038730 8.195221 106.855484 -31.239275 -9.461397 104.187431
[L_mid_hand02]
2 105.572853 -4.139662 -10.864139 -142.331345 25.752670 -28.774628 106.211075
3 105.572853 -4.139662 -10.864139 -142.331345 25.752670 -28.774628 106.211075
[L_mid_hand03]
2 104.641464 17.579376 -3.913581 -16.122810 9.734291 34.223598 106.179977
3 104.641464 17.579376 -3.913581 -16.122810 9.734291 34.223598 106.179977
[null_rope02_connect]
2 328.732849 0.000179 -0.000119 133.172821 -66.901253 110.081718 328.732849
3 328.732849 0.000179 -0.000119 116.127861 -66.071342 125.977158 328.732849
[Rope2_Seg01]
2 -0.000106 -0.000148 -0.000153 95.003830 -25.571102 52.692974 0.000237
3 -0.000108 -0.000142 -0.000153 93.240410 -22.436323 56.950821 0.000235
[Rope2_Seg02]
2 139.999741 -0.000060 -0.000119 -0.098137 4.017205 -2.421888 139.999756
3 139.999741 -0.000060 -0.000119 -0.001166 1.638824 -1.234928 139.999756
[Rope2_Seg03]
2 140.000107 0.000030 0.000000 -0.098686 5.507789 -3.320992 140.000107
3 140.000107 0.000030 0.000000 0.021526 2.119038 -1.600671 140.000107
[Rope2_Seg04]
2 139.999802 0.000000 -0.000060 0.013218 7.478095 -5.133848 139.999802
3 139.999802 0.000000 -0.000060 0.055924 2.876987 -2.173857 139.999802
[Rope2_Seg05]
2 139.999985 -0.000060 0.000119 2.836960 7.556774 -12.913637 139.999985
3 139.999985 -0.000060 0.000119 0.253016 3.454187 -3.647861 139.999985
[Rope2_Seg06]
2 139.999893 -0.000030 -0.000119 -4.348444 18.670624 -4.094477 139.999893
3 139.999893 -0.000030 -0.000119 2.107260 2.233637 -9.343182 139.999893
[Rope2_Seg07]
2 139.999893 0.000060 -0.000060 -21.099012 17.427670 9.358752 139.999893
3 139.999893 0.000060 -0.000060 -2.066343 16.384933 -5.119827 139.999893
[Rope2_Seg09]
2 121.338966 0.000089 -0.000060 33.793236 -1.359788 -0.847141 121.338966
3 121.338966 0.000089 -0.000060 33.793236 -1.359788 -0.847141 121.338966
[R_mid_hand01]
2 104.680779 11.144459 -10.335981 -41.523792 25.424656 28.595957 105.778534
3 104.680779 11.144459 -10.335981 -41.523792 25.424656 28.595957 105.778534
[R_mid_hand02]
2 104.070427 2.443552 8.231699 72.847389 -32.746803 10.013901 104.424065
3 104.070427 2.443552 8.231699 72.847389 -32.746803 10.013901 104.424065
[R_mid_hand03]
2 106.028137 -11.221827 -5.996406 -167.901306 10.259192 -37.009720 106.788818
3 106.028137 -11.221827 -5.996406 -167.901306 10.259192 -37.009720 106.788818
[spine02]
2 129.756927 0.001550 0.000119 0.001147 -1.797837 -7.854275 129.756927
3 129.756927 0.001550 0.000119 0.001147 -1.797837 -7.854274 129.756927
[spine03]
2 79.115631 0.000000 -0.000119 1.459971 -2.848092 23.765963 79.115631
3 79.115631 0.000000 -0.000119 1.459971 -2.848092 23.765961 79.115631
[pelvis]
2 169.435242 0.051022 0.000000 -0.000005 0.000003 -4.322055 169.435257
3 169.435242 0.051022 0.000000 -0.000005 0.000003 -4.322055 169.435257
[null_rope03_connect]
2 -1.257226 -2.466202 137.391083 -42.675369 84.270500 -150.579056 137.418976
3 -1.257226 -2.466202 137.391083 -63.065117 86.215454 -170.555420 137.418976
[null_rope04_connect]
2 -1.259640 -2.480268 -137.844437 -42.675369 84.270500 -150.579056 137.872513
3 -1.259640 -2.480268 -137.844437 -63.065117 86.215454 -170.555420 137.872513
[Rope3_Seg01]
2 -0.000034 -0.000066 0.000005 -128.366791 -3.172801 80.702545 0.000074
3 -0.000031 -0.000065 0.000010 -128.345749 -2.674572 79.542976 0.000072
[Rope3_Seg02]
2 139.999924 -0.000119 0.000060 -0.872005 -5.438272 -2.145578 139.999924
3 139.999924 -0.000119 0.000060 -0.615865 -4.056952 -2.129405 139.999924
[Rope3_Seg03]
2 139.999924 -0.000119 0.000119 -0.617650 -6.507025 -2.702907 139.999924
3 139.999924 -0.000119 0.000119 -0.497549 -4.824517 -2.606122 139.999924
[Rope3_Seg04]
2 139.999924 0.000119 0.000000 -0.159540 -8.682145 -3.954954 139.999924
3 139.999924 0.000119 0.000000 -0.280780 -6.052263 -3.748152 139.999924
[Rope3_Seg05]
2 139.999924 -0.000238 0.000060 1.335207 -11.971160 -5.969355 139.999924
3 139.999924 -0.000238 0.000060 0.432773 -7.762235 -5.472626 139.999924
[Rope3_Seg06]
2 139.999893 -0.000119 -0.000060 1.074974 -4.130256 -0.942801 139.999893
3 139.999893 -0.000119 -0.000060 0.824792 -5.482212 -1.161832 139.999893
[Rope3_Seg07]
2 139.999771 0.000060 -0.000119 0.404855 4.298859 4.011667 139.999771
3 139.999771 0.000060 -0.000119 0.866772 -2.444068 2.823013 139.999771
[Rope3_Seg08]
2 139.999985 -0.000060 0.000000 0.542104 1.969263 2.370612 139.999985
3 139.999985 -0.000060 0.000000 0.819726 -2.612315 1.007032 139.999985
[Rope3_Seg09]
2 90.185997 -0.000179 -0.000060 89.793228 -1.359877 -0.847183 90.185997
3 90.185997 -0.000179 -0.000060 89.793228 -1.359877 -0.847183 90.185997
[R_rear_hand01]
2 103.366196 -6.073594 -10.757982 -161.551193 16.666374 -30.088671 104.101845
3 103.366196 -6.073594 -10.757982 -161.551193 16.666374 -30.088671 104.101845
[R_rear_hand02]
2 100.509819 12.039542 -7.992327 -34.280552 19.289745 28.875523 101.543350
3 100.509819 12.039542 -7.992327 -34.280552 19.289745 28.875523 101.543350
[R_rear_hand03]
2 101.539970 5.215704 5.435467 83.366440 -30.933914 7.284830 101.819031
3 101.539970 5.215704 5.435467 83.366440 -30.933914 7.284830 101.819031
[Rope4_Seg01]
2 0.000069 0.000114 0.000000 54.165730 -17.462078 49.233971 0.000133
3 0.000061 0.000113 0.000000 49.796463 -10.498196 53.729412 0.000128
[Rope4_Seg02]
2 139.999985 0.000060 0.000119 1.309116 21.314373 9.609415 139.999985
3 139.999985 0.000060 0.000119 2.407513 15.956198 11.541014 139.999985
[Rope4_Seg03]
2 139.999924 0.000000 -0.000238 1.471909 18.237169 8.580940 139.999924
3 139.999924 0.000000 -0.000238 0.860048 11.213975 8.322859 139.999924
[Rope4_Seg04]
2 139.999985 0.000000 0.000119 0.945452 14.191559 7.650667 139.999985
3 139.999985 0.000000 0.000119 -0.089412 7.279768 6.754496 139.999985
[Rope4_Seg05]
2 139.999802 -0.000060 -0.000119 0.591397 4.836955 1.655295 139.999802
3 139.999802 -0.000060 -0.000119 0.238926 3.822392 1.622881 139.999802
[Rope4_Seg06]
2 139.999924 0.000000 0.000060 1.281173 0.408113 -1.843668 139.999924
3 139.999924 0.000000 0.000060 1.211318 3.041082 -1.589084 139.999924
[Rope4_Seg07]
2 139.999802 0.000000 0.000000 2.262321 -3.197158 -5.561458 139.999802
3 139.999802 0.000000 0.000000 2.412208 3.573231 -4.319040 139.999802
[Rope4_Seg08]
2 139.999924 0.000000 0.000119 -0.108104 -1.075489 -3.593588 139.999924
3 139.999924 0.000000 0.000119 0.203609 3.493710 -2.302999 139.999924
[Rope4_Seg09]
2 90.185791 0.000060 0.000060 -135.617828 2.228885 0.850567 90.185791
3 90.185791 0.000060 0.000060 -135.617828 2.228885 0.850567 90.185791
[L_rear_hand01]
2 101.696655 -8.392275 -7.654577 -34.454281 -18.946800 151.655121 102.329041
3 101.696655 -8.392275 -7.654577 -34.454281 -18.946800 151.655121 102.329041
[L_rear_hand02]
2 102.726799 -1.568258 5.773216 83.407906 30.330435 172.796509 102.900848
3 102.726799 -1.568258 5.773216 83.407906 30.330435 172.796509 102.900848
[L_rear_hand03]
2 104.552910 9.721220 -10.420293 -161.379868 -16.473232 -150.512238 105.519653
3 104.552910 9.721220 -10.420293 -161.379868 -16.473232 -150.512238 105.519653
